<?xml version="1.0" encoding="UTF-8" standalone="no"?>
<!-- Created with Inkscape (http://www.inkscape.org/) -->

<svg
   width="92.833473mm"
   height="34.88443mm"
   viewBox="0 0 92.833473 34.88443"
   version="1.1"
   id="svg1436"
   inkscape:version="1.1 (c68e22c387, 2021-05-23)"
   sodipodi:docname="ifta-logo-dark.svg"
   xmlns:inkscape="http://www.inkscape.org/namespaces/inkscape"
   xmlns:sodipodi="http://sodipodi.sourceforge.net/DTD/sodipodi-0.dtd"
   xmlns="http://www.w3.org/2000/svg"
   xmlns:svg="http://www.w3.org/2000/svg">
  <sodipodi:namedview
     id="namedview1438"
     pagecolor="#ffffff"
     bordercolor="#666666"
     borderopacity="1.0"
     inkscape:pageshadow="2"
     inkscape:pageopacity="0.0"
     inkscape:pagecheckerboard="0"
     inkscape:document-units="mm"
     showgrid="false"
     inkscape:zoom="0.77771465"
     inkscape:cx="108.00877"
     inkscape:cy="269.37901"
     inkscape:window-width="2560"
     inkscape:window-height="1351"
     inkscape:window-x="-9"
     inkscape:window-y="-9"
     inkscape:window-maximized="1"
     inkscape:current-layer="layer1" />
  <defs
     id="defs1433">
    <clipPath
       clipPathUnits="userSpaceOnUse"
       id="clipPath918">
      <path
         d="M 0,1796.884 H 1423 V 0 H 0 Z"
         id="path916" />
    </clipPath>
  </defs>
  <g
     inkscape:label="Layer 1"
     inkscape:groupmode="layer"
     id="layer1"
     transform="translate(-76.397698,-77.135101)">
    <g
       id="g912"
       transform="matrix(0.35277777,0,0,-0.35277777,0.2462418,683.34701)">
      <g
         id="g914"
         clip-path="url(#clipPath918)">
        <g
           id="g920"
           transform="translate(270.7058,1693.8823)">
          <path
             d="m 0,0 h -41.825 c -1.835,0 -3.323,-1.488 -3.323,-3.324 0,-1.835 1.488,-3.323 3.323,-3.323 H 0 c 1.836,0 3.324,1.488 3.324,3.323 C 3.324,-1.488 1.836,0 0,0"
             style="fill:#231f20;fill-opacity:1;fill-rule:nonzero;stroke:none"
             id="path922" />
        </g>
        <g
           id="g924"
           transform="translate(270.7058,1678.2329)">
          <path
             d="m 0,0 h -41.825 c -1.835,0 -3.323,-1.488 -3.323,-3.324 0,-1.836 1.488,-3.323 3.323,-3.323 H 0 c 1.836,0 3.324,1.487 3.324,3.323 C 3.324,-1.488 1.836,0 0,0"
             style="fill:#231f20;fill-opacity:1;fill-rule:nonzero;stroke:none"
             id="path926" />
        </g>
        <g
           id="g928"
           transform="translate(270.7058,1662.583)">
          <path
             d="m 0,0 h -41.825 c -1.835,0 -3.323,-1.488 -3.323,-3.324 0,-1.835 1.488,-3.323 3.323,-3.323 H 0 c 1.836,0 3.324,1.488 3.324,3.323 C 3.324,-1.488 1.836,0 0,0"
             style="fill:#231f20;fill-opacity:1;fill-rule:nonzero;stroke:none"
             id="path930" />
        </g>
        <g
           id="g932"
           transform="translate(248.4089,1646.9341)">
          <path
             d="m 0,0 h -19.528 c -1.835,0 -3.324,-1.488 -3.324,-3.324 0,-1.836 1.489,-3.324 3.324,-3.324 H 0 c 1.835,0 3.324,1.488 3.324,3.324 C 3.324,-1.488 1.835,0 0,0"
             style="fill:#231f20;fill-opacity:1;fill-rule:nonzero;stroke:none"
             id="path934" />
        </g>
        <g
           id="g936"
           transform="translate(298.2654,1670.061)">
          <path
             d="m 0,0 h -13.849 v 36.701 c 0,2.75 2.237,4.986 4.987,4.986 h 3.877 C -2.236,41.687 0,39.451 0,36.701 Z m -20.496,-38.917 c 0,-2.749 -2.237,-4.985 -4.986,-4.985 H -70.77 c -2.749,0 -4.986,2.236 -4.986,4.985 v 75.618 c 0,2.75 2.237,4.986 4.986,4.986 h 45.288 c 2.749,0 4.986,-2.236 4.986,-4.986 z m 15.511,87.252 h -3.877 c -3.255,0 -6.198,-1.347 -8.311,-3.507 -2.113,2.16 -5.056,3.507 -8.309,3.507 H -70.77 c -6.415,0 -11.633,-5.219 -11.633,-11.634 v -75.618 c 0,-6.414 5.218,-11.633 11.633,-11.633 h 45.288 c 6.415,0 11.633,5.219 11.633,11.633 v 32.27 H 6.647 v 43.348 c 0,6.415 -5.217,11.634 -11.632,11.634"
             style="fill:#231f20;fill-opacity:1;fill-rule:nonzero;stroke:none"
             id="path938" />
        </g>
        <g
           id="g940"
           transform="translate(325.0417,1695.6338)">
          <path
             d="m 0,0 c 2.969,0 5.52,1.08 7.653,3.24 2.132,2.16 3.2,4.771 3.2,7.833 0,3.103 -1.078,5.745 -3.231,7.927 -2.153,2.18 -4.737,3.271 -7.748,3.271 -3.012,0 -5.583,-1.07 -7.717,-3.209 -2.133,-2.139 -3.198,-4.718 -3.198,-7.738 0,-3.145 1.076,-5.819 3.229,-8.021 C -5.656,1.101 -3.054,0 0,0"
             style="fill:#231f20;fill-opacity:1;fill-rule:nonzero;stroke:none"
             id="path942" />
        </g>
        <g
           id="g944"
           transform="translate(457.2634,1640.8696)">
          <path
             d="m 0,0 c -3.553,-3.754 -8.026,-5.63 -13.418,-5.63 -5.226,0 -9.625,1.908 -13.199,5.724 -3.573,3.817 -5.361,8.682 -5.361,14.596 0,5.872 1.757,10.685 5.267,14.438 3.513,3.754 7.922,5.631 13.231,5.631 5.434,0 9.927,-1.846 13.48,-5.537 C 3.552,25.532 5.329,20.708 5.329,14.753 5.329,8.671 3.552,3.754 0,0 m 4.574,48.851 v -7.55 c -3.058,3.104 -6.389,5.432 -9.992,6.984 -3.602,1.551 -7.455,2.327 -11.561,2.327 -6.793,0 -8.26,-1.761 -8.26,-1.761 H -52.858 V 74.078 H -70.033 V 48.851 h -3.927 -4.881 -14.219 l 0.064,8.556 c 0,1.971 0.335,3.271 1.007,3.9 0.922,0.839 2.39,1.258 4.403,1.258 1.594,0 3.628,-0.356 6.103,-1.069 v 13.086 c -4.488,1.635 -8.514,2.453 -12.08,2.453 -4.949,0 -8.776,-1.101 -11.481,-3.303 -2.705,-2.202 -4.288,-5.19 -4.75,-8.965 -0.251,-1.636 -0.398,-6.941 -0.44,-15.916 h -13.526 -3.325 -13.85 v -68.448 h 17.175 v 53.915 h 13.526 v -53.915 h 17.174 v 53.915 h 14.219 v -0.252 h 8.808 v -53.663 h 17.175 v 53.663 h 8.499 c -3.132,-5.571 -4.73,-12.079 -4.73,-19.565 0,-10.191 3.226,-18.716 9.676,-25.573 6.451,-6.858 14.098,-10.286 22.936,-10.286 3.938,0 7.593,0.702 10.965,2.107 3.373,1.405 6.734,3.702 10.086,6.889 v -7.235 h 17.175 v 68.448 z"
             style="fill:#231f20;fill-opacity:1;fill-rule:nonzero;stroke:none"
             id="path946" />
        </g>
      </g>
    </g>
  </g>
</svg>
